<?xml version="1.0" encoding="UTF-8" standalone="no"?>
<!DOCTYPE svg PUBLIC "-//W3C//DTD SVG 1.1//EN" "http://www.w3.org/Graphics/SVG/1.1/DTD/svg11.dtd">
<svg width="100%" height="100%" viewBox="0 0 1000 1000" version="1.1" xmlns="http://www.w3.org/2000/svg" xmlns:xlink="http://www.w3.org/1999/xlink" xml:space="preserve" xmlns:serif="http://www.serif.com/" style="fill-rule:evenodd;clip-rule:evenodd;stroke-linejoin:round;stroke-miterlimit:2;">
    <g transform="matrix(52.500425,0,0,52.500425,-24.763826,8.876423)">
        <path d="M11.559,7.529C13.076,6.222 14.543,4.438 15.713,3.157C16.589,2.198 17.424,1.237 18.122,0.976C18.347,0.891 18.6,0.979 18.725,1.185C19.351,2.219 19.598,3.803 19.498,5.492C19.367,7.684 18.659,10.046 17.563,11.559C17.418,11.759 17.014,12.371 17.012,12.373C17.25,13.237 17.199,14.028 16.891,14.726C16.571,15.449 15.998,16.025 15.299,16.469C13.91,17.349 11.931,17.766 10,17.766C8.069,17.766 6.09,17.349 4.701,16.469C4.002,16.025 3.429,15.449 3.109,14.726C2.801,14.028 2.75,13.237 2.988,12.373C2.986,12.371 2.582,11.759 2.437,11.559C1.341,10.046 0.633,7.684 0.502,5.492C0.402,3.803 0.649,2.219 1.275,1.185C1.4,0.979 1.653,0.891 1.878,0.976C2.576,1.237 3.411,2.198 4.287,3.157C5.457,4.438 6.924,6.222 8.441,7.529C8.453,7.527 8.465,7.526 8.478,7.524C8.981,7.466 9.492,7.437 10,7.437C10.477,7.437 10.957,7.462 11.431,7.514C11.481,7.518 11.523,7.523 11.559,7.529ZM10,15.236C10.07,15.229 10.166,15.24 10.212,15.085C10.26,14.927 10.24,14.763 10.323,14.688C10.449,14.572 10.604,14.61 10.664,14.598C10.774,14.598 10.863,14.508 10.863,14.398C10.863,14.287 10.774,14.197 10.664,14.197L9.336,14.197C9.226,14.197 9.137,14.287 9.137,14.398C9.137,14.508 9.226,14.598 9.336,14.598C9.396,14.61 9.551,14.572 9.677,14.688C9.76,14.763 9.74,14.927 9.788,15.085C9.834,15.24 9.93,15.229 10,15.236ZM5.193,12.332C5.132,12.336 5.075,12.343 5.026,12.356C4.98,12.368 4.928,12.388 4.887,12.425C4.839,12.47 4.814,12.534 4.83,12.605C4.843,12.663 4.881,12.711 4.918,12.749C5.167,12.997 5.306,13.116 5.525,13.173C5.628,13.2 5.748,13.213 5.896,13.226C6.045,13.239 6.231,13.253 6.481,13.282L6.486,13.285L6.497,13.285L6.503,13.285C6.697,13.291 6.979,13.323 7.283,13.363C7.584,13.403 7.906,13.45 8.17,13.48C8.301,13.495 8.422,13.506 8.52,13.51C8.611,13.514 8.704,13.513 8.767,13.493C8.793,13.484 8.868,13.455 8.884,13.372C8.9,13.294 8.85,13.237 8.83,13.216C8.779,13.165 8.686,13.11 8.562,13.048C8.044,12.789 7.028,12.537 6.213,12.412C5.805,12.349 5.434,12.315 5.193,12.332ZM5.854,7.946C5.5,5.656 2.344,2.434 1.916,2.126C1.544,3.002 1.427,4.187 1.501,5.433C1.62,7.436 2.243,9.287 3.246,10.654L3.024,8.765L4.334,9L3.869,6.915L5.854,7.946ZM14.146,7.946L16.131,6.915L15.666,9L16.976,8.765L16.754,10.654C17.757,9.287 18.38,7.436 18.499,5.433C18.573,4.187 18.456,3.002 18.084,2.126C17.656,2.434 14.5,5.656 14.146,7.946ZM14.807,12.332C14.566,12.315 14.195,12.349 13.787,12.412C12.972,12.537 11.956,12.789 11.438,13.048C11.314,13.11 11.221,13.165 11.17,13.216C11.15,13.237 11.1,13.294 11.116,13.372C11.132,13.455 11.207,13.484 11.233,13.493C11.296,13.513 11.389,13.514 11.48,13.51C11.578,13.506 11.699,13.495 11.83,13.48C12.094,13.45 12.416,13.403 12.717,13.363C13.021,13.323 13.303,13.291 13.497,13.285L13.503,13.285L13.514,13.285L13.519,13.282C13.769,13.253 13.955,13.239 14.104,13.226C14.252,13.213 14.372,13.2 14.475,13.173C14.694,13.116 14.833,12.997 15.082,12.749C15.119,12.711 15.157,12.663 15.17,12.605C15.186,12.534 15.161,12.47 15.113,12.425C15.072,12.388 15.02,12.368 14.974,12.356C14.925,12.343 14.868,12.336 14.807,12.332Z" style="fill:url(#_Linear1);"/>
    </g>
    <defs>
        <linearGradient id="_Linear1" x1="0" y1="0" x2="1" y2="0" gradientUnits="userSpaceOnUse" gradientTransform="matrix(0,16.898448,-16.898448,0,10,0.866852)"><stop offset="0" style="stop-color:rgb(249,115,22);stop-opacity:1"/><stop offset="1" style="stop-color:rgb(234,88,12);stop-opacity:1"/></linearGradient>
    </defs>
</svg>
