<svg width="20" height="18" viewBox="0 0 20 18" fill="none" xmlns="http://www.w3.org/2000/svg">
<path d="M17.8525 0.911115C18.0322 0.845026 18.2233 0.854464 18.3945 0.9326C18.566 1.01095 18.6883 1.14336 18.7725 1.25975C18.9415 1.49368 19.0699 1.8238 19.1689 2.17869C19.3715 2.90481 19.5 3.92057 19.5 5.01561C19.5 5.13921 19.4985 5.26453 19.4951 5.39061H19.5C19.5 5.703 19.4815 6.01781 19.4492 6.3242C19.4236 6.54562 19.3918 6.76608 19.3555 6.98436C19.2826 7.47194 19.1814 7.95785 19.042 8.42479C18.9997 8.5665 18.9539 8.70753 18.9043 8.84666C18.6491 9.64005 18.3183 10.4098 17.915 11.1543C17.7192 11.4997 17.5133 11.8356 17.2178 12.1689C17.152 12.2362 17.0878 12.3044 17.0117 12.373C17.2505 13.237 17.1989 14.0285 16.8906 14.7256C16.5707 15.4488 15.998 16.0253 15.2988 16.4687C13.91 17.3494 11.9308 17.7656 10 17.7656C8.06921 17.7656 6.08995 17.3493 4.70117 16.4687C4.00202 16.0253 3.42931 15.4487 3.10938 14.7256C2.80131 14.0288 2.74887 13.2375 2.9873 12.374C2.91129 12.3054 2.848 12.2362 2.78223 12.1689C2.48669 11.8356 2.28076 11.4997 2.08496 11.1543C1.68172 10.4098 1.35087 9.64005 1.0957 8.84666C1.04614 8.70753 1.00031 8.5665 0.958008 8.42479C0.81861 7.9578 0.716473 7.47199 0.643555 6.98436C0.607196 6.76613 0.576346 6.54556 0.550781 6.3242C0.518483 6.01781 0.499991 5.703 0.5 5.39061H0.504883C0.501522 5.26453 0.500002 5.13921 0.5 5.01561C0.500034 3.92057 0.628478 2.90481 0.831055 2.17869C0.930097 1.8238 1.05849 1.49368 1.22754 1.25975C1.31171 1.14336 1.43398 1.01095 1.60547 0.9326C1.77669 0.854464 1.96778 0.845026 2.14746 0.911115L2.22363 0.943342C2.41664 1.03987 2.60835 1.19962 2.78711 1.36912C2.97253 1.54496 3.17525 1.76268 3.38965 2.00487C3.81338 2.48353 4.32922 3.11048 4.87988 3.75291C6.00327 5.06352 7.33948 6.51534 8.77637 7.47362C9.17139 7.41905 9.58072 7.39061 10 7.39061C10.419 7.39061 10.8279 7.4201 11.2227 7.47459C12.66 6.51633 13.9964 5.06386 15.1201 3.75291C15.6708 3.11048 16.1866 2.48353 16.6104 2.00487C16.8248 1.76268 17.0275 1.54496 17.2129 1.36912C17.3916 1.19962 17.5834 1.03987 17.7764 0.943342L17.8525 0.911115ZM9.99902 16.3799L10 16.3887L10.001 16.3789L9.99902 16.3799ZM9.33301 14.3594V14.3603H9.33105C9.33021 14.36 9.32909 14.3611 9.3291 14.3623V14.3652C9.32366 14.3657 9.31739 14.3663 9.3125 14.3672C9.30955 14.3677 9.30028 14.37 9.29004 14.374C9.28602 14.3756 9.27726 14.3792 9.27246 14.3818C9.2645 14.3869 9.24611 14.4021 9.23535 14.4131C9.17649 14.4915 9.17885 14.6291 9.2334 14.7129C9.23441 14.7145 9.23537 14.7165 9.23633 14.7178C9.24789 14.7292 9.26748 14.7443 9.27539 14.749C9.28076 14.7517 9.29026 14.7554 9.29395 14.7568C9.30086 14.7592 9.30687 14.7602 9.30957 14.7607C9.31472 14.7618 9.31948 14.7625 9.32129 14.7627C9.3274 14.7633 9.33478 14.7636 9.33691 14.7637C9.3571 14.7642 9.4102 14.7634 9.47754 14.7627C9.59417 14.7759 9.65046 14.8133 9.68359 14.8574C9.72033 14.9069 9.75146 14.9961 9.77051 15.1699C9.78287 15.2802 9.85195 15.3672 9.93652 15.3672C9.95927 15.3671 9.98037 15.36 10 15.3486C10.0196 15.36 10.0407 15.3671 10.0635 15.3672C10.1481 15.3672 10.2171 15.2803 10.2295 15.1699C10.2485 14.9964 10.2788 14.907 10.3154 14.8574C10.3485 14.8133 10.4053 14.7761 10.5215 14.7627C10.5893 14.7634 10.6428 14.7642 10.6631 14.7637C10.6652 14.7636 10.6726 14.7633 10.6787 14.7627C10.6805 14.7625 10.6853 14.7618 10.6904 14.7607C10.6931 14.7602 10.6991 14.7593 10.7061 14.7568C10.7097 14.7554 10.7192 14.7517 10.7246 14.749C10.7325 14.7443 10.7521 14.7292 10.7637 14.7178C10.7646 14.7165 10.7656 14.7145 10.7666 14.7129C10.8211 14.6291 10.8235 14.4915 10.7646 14.4131C10.7539 14.4021 10.7355 14.3869 10.7275 14.3818C10.7225 14.3791 10.7128 14.3755 10.709 14.374C10.6989 14.3701 10.6904 14.3677 10.6875 14.3672C10.6823 14.3663 10.6756 14.3657 10.6699 14.3652L10.6709 14.3623C10.6709 14.3611 10.6698 14.3601 10.6689 14.3603H10.667V14.3594H10.0635C10.0471 14.3594 10.0255 14.3601 10 14.3603C9.97447 14.3601 9.95286 14.3594 9.93652 14.3594H9.33301ZM5.33887 12.3711C5.27816 12.3753 5.22052 12.3829 5.17188 12.3955C5.12592 12.4075 5.0734 12.4279 5.0332 12.4648C4.98543 12.509 4.95996 12.574 4.97559 12.6445C4.98871 12.7023 5.02635 12.7509 5.06348 12.7881C5.31235 13.0369 5.45149 13.1559 5.6709 13.2129C5.77398 13.2395 5.89367 13.2523 6.04199 13.2656C6.19059 13.2789 6.37678 13.2926 6.62598 13.3213L6.63184 13.3242H6.64258L6.64844 13.3252V13.3242C6.84242 13.3295 7.12476 13.3622 7.42871 13.4023C7.72943 13.4421 8.05211 13.4895 8.31543 13.5195C8.44705 13.5345 8.56791 13.5456 8.66602 13.5498C8.757 13.5536 8.84996 13.5525 8.91309 13.5322C8.93883 13.5239 9.01333 13.4944 9.03027 13.4111C9.04575 13.3331 8.9958 13.2764 8.97559 13.2558C8.92503 13.2044 8.83135 13.1496 8.70801 13.0879C8.19008 12.829 7.17393 12.5766 6.3584 12.4512C5.95101 12.3885 5.57995 12.3545 5.33887 12.3711ZM14.6631 12.3711C14.4219 12.3545 14.0511 12.3885 13.6436 12.4512C12.8279 12.5767 11.8118 12.8289 11.2939 13.0879C11.1706 13.1496 11.0769 13.2045 11.0264 13.2558C11.006 13.2766 10.9562 13.3334 10.9717 13.4111C10.9886 13.4945 11.0632 13.5239 11.0889 13.5322C11.152 13.5526 11.2447 13.5537 11.3359 13.5498C11.4341 13.5456 11.5547 13.5345 11.6865 13.5195C11.9499 13.4895 12.2724 13.4421 12.5732 13.4023C12.8774 13.3622 13.1594 13.3295 13.3535 13.3242V13.3252L13.3594 13.3242H13.3701L13.375 13.3213C13.6249 13.2925 13.8111 13.2789 13.96 13.2656C14.1085 13.2523 14.2279 13.2396 14.3311 13.2129C14.5506 13.1559 14.6896 13.0369 14.9385 12.7881C14.9756 12.7509 15.0132 12.7023 15.0264 12.6445C15.042 12.5739 15.0167 12.509 14.9688 12.4648C14.9284 12.4278 14.8761 12.4074 14.8301 12.3955C14.7813 12.3829 14.724 12.3753 14.6631 12.3711ZM1.79395 2.44725C1.62168 3.06467 1.50003 3.98635 1.5 5.01561C1.50001 5.59777 1.54031 6.20547 1.62793 6.80272C1.72899 7.41154 1.88229 8.01804 2.07715 8.61033C2.34627 9.331 2.71227 9.94561 3.18945 10.3906H3.5V8.58201L4.25098 8.95701L3.75098 6.95701L4.72363 7.44334C5.06911 7.61608 5.41522 7.78827 5.76074 7.96092C5.75275 7.92733 5.74584 7.89175 5.73633 7.85643C5.56793 7.23237 5.19189 6.48484 4.7041 5.72264C4.21985 4.96603 3.64169 4.22081 3.09473 3.60545C2.59247 3.04046 2.13614 2.60917 1.81641 2.37401C1.80931 2.39766 1.80098 2.42202 1.79395 2.44725ZM18.1826 2.37401C17.8629 2.60928 17.4072 3.04084 16.9053 3.60545C16.3583 4.22081 15.7801 4.96603 15.2959 5.72264C14.8081 6.48484 14.4321 7.23237 14.2637 7.85643C14.2541 7.89183 14.2463 7.92726 14.2383 7.96092C14.5841 7.78814 14.9306 7.61621 15.2764 7.44334L16.249 6.95701L15.749 8.95701L16.5 8.58201V10.3906H16.8105C17.2877 9.94567 17.6528 9.33086 17.9219 8.61033C18.1168 8.018 18.27 7.41159 18.3711 6.80272C18.4587 6.20543 18.5 5.59782 18.5 5.01561C18.5 3.98635 18.3783 3.06467 18.2061 2.44725C18.199 2.42193 18.1898 2.39774 18.1826 2.37401Z" fill="url(#paint0_linear_12_131)"/>
<defs>
<linearGradient id="paint0_linear_12_131" x1="10" y1="0.866852" x2="10" y2="17.7653" gradientUnits="userSpaceOnUse">
<stop offset="0.25" stop-color="#533122"/>
<stop offset="1" stop-color="#8F6D57"/>
</linearGradient>
</defs>
</svg>
